HIERARCHY
ROOT pelvis
{
  OFFSET 0 100 0
  CHANNELS 6 Xposition Yposition Zposition Zrotation Xrotation Yrotation
  JOINT pelvis_right_femur
  {
    OFFSET -10.78128 -3.44521 -0.5502486
    CHANNELS 3 Zrotation Xrotation Yrotation
    JOINT right_femur_tibia
    {
      OFFSET -0.8047443 -44.0398 -0.1307829
      CHANNELS 3 Zrotation Xrotation Yrotation
      JOINT right_tibia_foot
      {
        OFFSET 3.006224 -47.83518 -5
        CHANNELS 3 Zrotation Xrotation Yrotation
        End Site
        {
          OFFSET 0 -5 15
        }
      }
    }
  }
  JOINT pelvis_left_femur
  {
    OFFSET 10.78128 -3.44521 -0.5502486
    CHANNELS 3 Zrotation Xrotation Yrotation
    JOINT left_femur_tibia
    {
      OFFSET 0.8047443 -44.0398 -0.1307829
      CHANNELS 3 Zrotation Xrotation Yrotation
      JOINT left_tibia_foot
      {
        OFFSET -4.370144 -48.10324 -4.275266
        CHANNELS 3 Zrotation Xrotation Yrotation
        End Site
        {
          OFFSET 0 -5 15
        }
      }
    }
  }
  JOINT pelvis_spine1
  {
    OFFSET 0 6.468898 -3.129235
    CHANNELS 3 Zrotation Xrotation Yrotation
    JOINT spine1
    {
      OFFSET 0 23.15396 4.99043
      CHANNELS 3 Zrotation Xrotation Yrotation
      JOINT spine2
      {
        OFFSET 0 20.79997 -5.064912
        CHANNELS 3 Zrotation Xrotation Yrotation
        JOINT neck
        {
          OFFSET 0 14.38658 9.616178
          CHANNELS 3 Zrotation Xrotation Yrotation
          End Site
          {
            OFFSET 0 20 0
          }
        }
      }
      JOINT right_manubrium
      {
        OFFSET -5.722621 16.35077 3.967754
        CHANNELS 3 Zrotation Xrotation Yrotation
        JOINT right_clavicle
        {
          OFFSET -13.16364 1.694482 -4.693211
          CHANNELS 3 Zrotation Xrotation Yrotation
          JOINT right_humerus
          {
            OFFSET -28.5034 -0.3100689 -2.792744
            CHANNELS 3 Zrotation Xrotation Yrotation
            JOINT right_radius
            {
              OFFSET -25.15693 0.02248979 -1.271978
              CHANNELS 3 Zrotation Xrotation Yrotation
              End Site
              {
                OFFSET -15 0 0
              }
            }
          }
        }
      }
      JOINT left_manubrium
      {
        OFFSET 5.722621 16.35077 3.967754
        CHANNELS 3 Zrotation Xrotation Yrotation
        JOINT left_clavicle
        {
          OFFSET 13.16364 1.694482 -4.693211
          CHANNELS 3 Zrotation Xrotation Yrotation
          JOINT left_humerus
          {
            OFFSET 29.39168 -1.063119 -2.237045
            CHANNELS 3 Zrotation Xrotation Yrotation
            JOINT left_radius
            {
              OFFSET 24.59957 -0.9528479 0.9047498
              CHANNELS 3 Zrotation Xrotation Yrotation
              End Site
              {
                OFFSET 15 -0 -0
              }
            }
          }
        }
      }
    }
  }
}
MOTION
Frames: 7
Frame Time: 0.0416666666667
0 103.5113 0 1.544977 0.4431412 0.09388515 4.069867 -14.82128 11.65496 -0 36.86372 -0 -4.914713 -19.56222 -3.916336 -7.277208 8.243339 -20.62092 -0 3.996518 -0 20.49424 -8.618154 26.91634 -2.662679 -2.276892 4.916354 2.550348 9.703564 -7.504676 1.061855 21.03562 6.921574 4.066166 -24.71716 8.37783 5.542425 -19.08942 11.15595 85.4496 34.88581 -18.46813 -0 0 15.63102 -9.688666 8.384034 4.587939 6.887181 -21.32634 -1.534361 -92.76128 21.63655 21.06449 0 0 -14.31342 11.6984 14.57237 -0.2284572
0.4167312 103.64 1.637105 1.058146 1.764798 0.1821692 5.133607 -18.40494 12.82197 -0 36.50562 -0 -5.127624 -18.64308 -4.247358 -7.233473 8.537058 -20.70534 -0 5.102223 -0 21.02313 -9.932374 27.51295 -2.431052 -2.234543 4.535962 2.818489 9.483242 -7.846674 1.202972 20.56891 7.084747 4.134353 -25.63971 8.754027 5.541699 -18.61747 11.16557 85.9197 34.88181 -19.30096 -0 0 14.96988 -9.333668 8.843385 4.482784 7.322157 -21.47315 -1.016013 -92.32038 21.43667 19.78575 0 0 -15.45023 12.34315 14.62821 -1.097615
0.7739887 103.4806 3.373438 0.8774756 0.2157288 0.2538694 4.744796 -18.17381 10.59386 -0 35.03485 -0 -5.571359 -16.36969 -4.027416 -6.867242 9.816431 -20.92918 -0 5.702609 -0 16.56465 -12.74027 27.04115 -2.472511 -2.14548 4.590217 2.769074 9.53918 -7.757333 1.14119 20.6959 7.053209 4.113868 -25.38365 8.60001 5.546758 -18.64102 11.20766 85.75281 34.84214 -19.01726 -0 0 14.94198 -9.654754 8.829812 4.772217 7.103725 -21.38002 -1.209614 -92.27958 21.55707 19.95441 0 0 -15.32161 11.84671 14.46258 -0.509221
1.071189 103.2783 5.250354 0.5380104 0.06302807 0.2764258 5.070073 -19.69876 9.849143 -0 33.71705 -0 -6.059681 -14.84425 -3.913983 -6.546824 10.38545 -20.80263 -0 6.53959 -0 14.89801 -14.30874 26.65301 -2.415412 -2.048396 4.514223 2.802247 9.531331 -7.803449 1.13089 20.6097 7.097093 4.15278 -25.46371 8.575182 5.539705 -18.49769 11.25243 85.77675 34.81418 -19.04957 -0 0 14.68764 -9.892251 9.013183 5.005412 7.116931 -21.40409 -1.188487 -92.02793 21.43617 19.57093 0 0 -15.6598 11.7597 14.29219 -0.4670176
1.308005 103.0157 7.253723 0.2028028 0.2016792 0.2904343 5.408543 -21.54564 9.325958 -0 32.5064 -0 -6.338404 -13.5249 -3.83651 -6.300164 11.01024 -20.75194 -0 7.115537 -0 12.98514 -16.12405 26.16418 -2.37619 -1.990737 4.433746 2.85767 9.49557 -7.853326 1.133121 20.55271 7.12459 4.152176 -25.5783 8.596078 5.547897 -18.38182 11.27961 85.81404 34.78001 -19.13488 -0 0 14.47941 -9.958354 9.13668 5.146773 7.099388 -21.3824 -1.159446 -91.89718 21.49415 19.33712 0 0 -15.91068 11.59905 14.21776 -0.2956439
1.495745 102.7131 9.433985 -0.1613241 0.5499554 0.3103678 5.889843 -23.55835 8.989592 -0 31.02852 -0 -6.705876 -12.30067 -3.716077 -6.016729 11.42392 -20.45652 -0 7.876731 -0 11.81221 -17.3803 25.54407 -2.325224 -1.92962 4.343135 2.916697 9.460547 -7.916948 1.136969 20.46951 7.162334 4.164755 -25.71452 8.620013 5.552773 -18.24966 11.30925 85.87054 34.74809 -19.24717 -0 0 14.24469 -10.04327 9.287996 5.292973 7.11174 -21.385 -1.113572 -91.72883 21.49187 19.03188 0 0 -16.21866 11.49587 14.1284 -0.2041628
1.640564 102.3854 11.83015 -0.5369016 1.055619 0.3511487 6.437843 -25.66794 8.771929 -0 29.39832 -0 -7.078534 -11.12327 -3.575256 -5.731441 11.78015 -20.04599 -0 8.763408 -0 10.81868 -18.41839 24.77385 -2.272672 -1.87033 4.244383 2.984549 9.419178 -7.987459 1.141919 20.38343 7.200704 4.172277 -25.86468 8.651072 5.560759 -18.11212 11.33907 85.93485 34.71153 -19.37927 -0 0 13.99647 -10.11037 9.443965 5.438326 7.119346 -21.38258 -1.065024 -91.56516 21.51542 18.72746 0 0 -16.53899 11.36907 14.04524 -0.08007565
